<svg height="512pt" viewBox="0 -39 512 511" width="512pt" xmlns="http://www.w3.org/2000/svg"><g fill-rule="evenodd"><path d="m10 145.449219h129.792969c0 23.460937 19.191406 42.652343 42.648437 42.652343h147.117188c23.457031 0 42.648437-19.191406 42.648437-42.652343h129.792969v277.695312h-492zm0 0" fill="#ccd2db"/><path d="m191.875 251.835938h123.597656c14.605469 0 26.550782 11.949218 26.550782 26.554687v28.730469c0 14.605468-11.945313 26.554687-26.550782 26.554687h-123.597656c-14.605469 0-26.554688-11.949219-26.554688-26.554687v-28.730469c0-14.605469 11.949219-26.554687 26.554688-26.554687zm0 0" fill="#576574"/><path d="m10 145.449219h129.792969c0 23.460937 19.191406 42.652343 42.648437 42.652343h147.117188c23.457031 0 42.648437-19.191406 42.648437-42.652343h129.792969l-37.347656-99.554688h-82.382813v49.25h-252.539062v-49.25h-82.382813zm0 0" fill="#576574"/><path d="m129.730469 10.5h252.539062v84.644531h-252.539062zm0 0" fill="#f4b537"/><path d="m139.792969 145.449219c0 23.460937 19.191406 42.652343 42.648437 42.652343h147.117188c23.457031 0 42.648437-19.191406 42.648437-42.652343h57.351563v-50.304688h-347.117188v50.304688zm0 0" fill="#feca57"/><path d="m511.933594 144.34375c-.082032-.804688-.289063-1.644531-.570313-2.40625l-37.347656-99.554688c-1.464844-3.902343-5.195313-6.488281-9.363281-6.488281h-72.382813v-25.394531c0-5.523438-4.476562-10-10-10h-252.539062c-5.523438 0-10 4.476562-10 10v25.394531h-72.382813c-4.167968 0-7.902344 2.585938-9.363281 6.488281l-37.347656 99.554688c-.410157 1.109375-.636719 2.332031-.636719 3.511719v277.695312c0 5.519531 4.476562 10 10 10h492c5.523438 0 10-4.480469 10-10v-277.695312c0-.371094-.023438-.738281-.066406-1.105469zm-54.207032-88.449219 29.839844 79.554688h-48.007812v-40.304688c0-5.523437-4.476563-10-10-10h-37.289063v-29.25zm-317.996093-35.394531h232.539062v64.644531h-76.269531c-5.523438 0-10 4.476563-10 10 0 5.523438 4.476562 10 10 10h123.558594v30.308594h-47.347656c-2.839844 0-9.960938 1.621094-10 10-.089844 17.4375-7.710938 32.703125-32.652344 32.648437h-147.117188c-18.003906 0-32.648437-14.644531-32.648437-32.648437 0-5.179687-2.753907-9.796875-10-10h-47.351563v-30.308594h123.558594c5.523438 0 10-4.476562 10-10 0-5.523437-4.476562-10-10-10h-76.269531zm-85.457031 35.394531h65.457031v29.25h-37.289063c-5.523437 0-10 4.476563-10 10v40.304688h-48.007812zm437.726562 357.25h-472v-257.695312h110.746094c10.503906 45.746093 48.496094 42.652343 51.695312 42.652343h147.117188c25.613281 0 47.011718-18.382812 51.699218-42.652343h110.742188zm0 0"/><path d="m315.472656 241.835938h-123.597656c-20.15625 0-36.554688 16.398437-36.554688 36.554687v28.730469c0 20.15625 16.398438 36.554687 36.554688 36.554687h123.597656c20.15625 0 36.550782-16.398437 36.550782-36.554687v-28.730469c0-20.15625-16.394532-36.554687-36.550782-36.554687zm16.550782 65.285156c0 9.128906-7.425782 16.554687-16.550782 16.554687h-123.597656c-9.128906 0-16.554688-7.425781-16.554688-16.554687v-28.730469c0-9.128906 7.425782-16.554687 16.554688-16.554687h123.597656c9.128906 0 16.550782 7.425781 16.550782 16.554687zm0 0"/><path d="m256 105.144531c5.507812 0 10-4.492187 10-10 0-5.507812-4.492188-10-10-10s-10 4.492188-10 10c0 5.507813 4.492188 10 10 10zm0 0"/></g></svg>