<?xml version="1.0" encoding="iso-8859-1"?>
<!-- Generator: Adobe Illustrator 19.0.0, SVG Export Plug-In . SVG Version: 6.00 Build 0)  -->
<svg version="1.1" id="Capa_1" xmlns="http://www.w3.org/2000/svg" xmlns:xlink="http://www.w3.org/1999/xlink" x="0px" y="0px"
	 viewBox="0 0 511.999 511.999" style="enable-background:new 0 0 511.999 511.999;" xml:space="preserve">
<path style="fill:#898890;" d="M504.499,298.032v-84.063h-49.922c-5.24-24.861-15.031-48.052-28.451-68.643l35.311-35.321
	l-59.442-59.442l-35.321,35.311c-20.591-13.42-43.782-23.211-68.643-28.451V7.501h-84.063v49.922
	c-24.861,5.24-48.052,15.031-68.643,28.451l-35.321-35.311l-59.442,59.442l35.311,35.321
	c-13.421,20.591-23.211,43.782-28.451,68.643H7.5v84.063h49.922c5.24,24.861,15.031,48.052,28.451,68.643l-35.311,35.321
	l59.442,59.442l35.321-35.311c20.591,13.421,43.782,23.211,68.643,28.451V504.5h84.063v-49.922
	c24.861-5.24,48.052-15.031,68.643-28.451l35.321,35.311l59.442-59.442l-35.311-35.321c13.421-20.591,23.211-43.782,28.451-68.643
	H504.499z M256,346.874c-50.182,0-90.873-40.692-90.873-90.873s40.692-90.873,90.873-90.873s90.873,40.692,90.873,90.873
	S306.181,346.874,256,346.874z"/>
<g>
	<path style="fill:#57565C;" d="M454.577,298.032c-5.24,24.861-15.031,48.052-28.451,68.643l35.311,35.321l-59.442,59.442
		l-35.321-35.311c-20.591,13.421-43.782,23.211-68.643,28.451V504.5H256V346.874c50.182,0,90.873-40.692,90.873-90.873
		S306.181,165.127,256,165.127V7.501h42.032v49.922c24.861,5.24,48.052,15.031,68.643,28.451l35.321-35.311l59.442,59.442
		l-35.311,35.321c13.421,20.591,23.211,43.782,28.451,68.643h49.922v84.063H454.577z"/>
	<path style="fill:#57565C;" d="M256,117.395c-76.553,0-138.605,62.052-138.605,138.605S179.447,394.606,256,394.606
		s138.605-62.052,138.605-138.605S332.552,117.395,256,117.395z M256,346.874c-50.182,0-90.873-40.692-90.873-90.873
		s40.692-90.873,90.873-90.873s90.873,40.692,90.873,90.873S306.181,346.874,256,346.874z"/>
</g>
<path style="fill:#3E3D43;" d="M394.605,256.001c0,76.553-62.052,138.605-138.605,138.605v-47.732
	c50.182,0,90.873-40.692,90.873-90.873S306.181,165.127,256,165.127v-47.732C332.552,117.395,394.605,179.448,394.605,256.001z"/>
<g>
	<path style="fill:#020202;" d="M256,157.631c-54.241,0-98.37,44.129-98.37,98.37s44.129,98.37,98.37,98.37
		s98.37-44.129,98.37-98.37S310.241,157.631,256,157.631z M256,339.37c-45.97,0-83.369-37.399-83.369-83.369
		S210.03,172.631,256,172.631s83.369,37.399,83.369,83.369S301.968,339.37,256,339.37z"/>
	<path style="fill:#020202;" d="M511.999,305.535v-99.07h-51.432c-5.118-21.238-13.476-41.397-24.904-60.076l36.382-36.381
		l-70.054-70.054l-36.381,36.382c-18.681-11.428-38.838-19.785-60.076-24.904V0h-99.07v51.432
		c-21.238,5.119-41.397,13.476-60.076,24.904l-36.381-36.382l-70.054,70.054l36.382,36.381
		c-11.429,18.681-19.786,38.838-24.904,60.076H0v99.07h51.432c5.118,21.238,13.475,41.397,24.904,60.076l-36.382,36.381
		l70.054,70.054l36.381-36.382c18.681,11.428,38.838,19.785,60.076,24.904v51.432h99.07v-51.432
		c21.238-5.119,41.397-13.475,60.076-24.904l36.381,36.382l70.054-70.054l-36.382-36.381c11.429-18.681,19.786-38.838,24.904-60.076
		h51.432V305.535z M447.234,296.489c-4.97,23.594-14.189,45.83-27.397,66.09l-3.322,5.097l34.316,34.316l-48.84,48.84
		l-34.315-34.316l-5.097,3.323c-20.262,13.208-42.498,22.426-66.091,27.396l-5.954,1.254v48.512h-69.069V448.49l-5.954-1.254
		c-23.594-4.97-45.83-14.188-66.091-27.396l-5.097-3.323l-34.315,34.316l-48.84-48.84l34.316-34.316l-3.322-5.097
		c-13.208-20.261-22.427-42.498-27.397-66.09l-1.254-5.954H15.001v-69.069h48.511l1.254-5.954
		c4.97-23.594,14.189-45.83,27.397-66.09l3.322-5.097l-34.316-34.316l48.84-48.84l34.315,34.316l5.097-3.323
		c20.262-13.208,42.498-22.426,66.091-27.396l5.954-1.254V15.001h69.069v48.512l5.954,1.254c23.594,4.97,45.83,14.188,66.091,27.396
		l5.097,3.323l34.315-34.316l48.84,48.84l-34.316,34.316l3.322,5.097c13.208,20.261,22.427,42.498,27.397,66.09l1.254,5.954H497
		v69.069H448.49L447.234,296.489z"/>
</g>
<g>
	<path style="fill:#FFFFFF;" d="M200.698,430.66c5.518,1.745,11.184,3.243,16.837,4.451l3.135-14.67
		c-5.187-1.108-10.384-2.482-15.448-4.083L200.698,430.66z"/>
	<path style="fill:#FFFFFF;" d="M127.096,363.993l-11.492,9.64c16.969,20.231,38.515,36.861,62.31,48.092l6.402-13.565
		C162.467,397.848,142.681,382.575,127.096,363.993z"/>
	<path style="fill:#FFFFFF;" d="M220.36,91.626l-3.164-14.664c-48.57,10.479-91.387,40.901-117.471,83.465l12.789,7.838
		C136.468,129.179,175.777,101.245,220.36,91.626z"/>
	<path style="fill:#FFFFFF;" d="M256,87.843l1.212,0.004l0.104-15.001l-1.315-0.004c-5.81,0-11.671,0.275-17.424,0.818l1.41,14.935
		C245.271,88.096,250.659,87.843,256,87.843z"/>
	<path style="fill:#FFFFFF;" d="M414.183,198.811c6.616,18.299,9.972,37.54,9.972,57.188c0,28.17-7.099,56.037-20.53,80.587
		l13.16,7.199c14.635-26.751,22.37-57.106,22.37-87.786c0-21.393-3.656-42.351-10.866-62.289L414.183,198.811z"/>
	<path style="fill:#FFFFFF;" d="M380.428,369.115l11.096,10.093c4.003-4.401,7.834-9.047,11.387-13.811l-12.023-8.969
		C387.623,360.803,384.104,365.072,380.428,369.115z"/>
</g>
<path style="fill:#020202;" d="M256,110.131c-80.433,0-145.868,65.436-145.868,145.868S175.568,401.868,256,401.868
	S401.868,336.432,401.868,256S336.432,110.131,256,110.131z M256,386.868c-72.161,0-130.868-58.707-130.868-130.868
	S183.839,125.133,256,125.133s130.868,58.707,130.868,130.868S328.16,386.868,256,386.868z"/>
<g>
</g>
<g>
</g>
<g>
</g>
<g>
</g>
<g>
</g>
<g>
</g>
<g>
</g>
<g>
</g>
<g>
</g>
<g>
</g>
<g>
</g>
<g>
</g>
<g>
</g>
<g>
</g>
<g>
</g>
</svg>
