<?xml version="1.0" encoding="utf-8"?>
<!-- Generator: Adobe Illustrator 23.0.1, SVG Export Plug-In . SVG Version: 6.00 Build 0)  -->
<svg version="1.1" id="Layer_1" xmlns="http://www.w3.org/2000/svg" xmlns:xlink="http://www.w3.org/1999/xlink" x="0px" y="0px"
	 viewBox="0 0 2800 2800" style="enable-background:new 0 0 2800 2800;" xml:space="preserve">
<style type="text/css">
	.st0{fill:#FFFFFF;}
	.st1{fill:url(#SVGID_1_);}
	.st2{fill:url(#SVGID_2_);}
	.st3{fill:url(#SVGID_3_);}
	.st4{fill:#F69275;}
	.st5{opacity:0.1;enable-background:new    ;}
	.st6{fill:url(#SVGID_4_);}
	.st7{fill:url(#SVGID_5_);}
	.st8{fill:url(#SVGID_6_);}
	.st9{fill:url(#SVGID_7_);}
	.st10{opacity:0.1;fill:#FFFFFF;enable-background:new    ;}
	.st11{fill:#25314F;}
	.st12{fill:url(#SVGID_8_);}
	.st13{fill:url(#SVGID_9_);}
	.st14{fill:#FBB03B;}
	.st15{fill:#E4A035;}
	.st16{fill:url(#SVGID_10_);}
	.st17{fill:url(#SVGID_11_);}
	.st18{opacity:0.3;}
	.st19{opacity:0.3;enable-background:new    ;}
	.st20{fill:url(#SVGID_12_);}
	.st21{fill:url(#SVGID_13_);}
	.st22{fill:url(#SVGID_14_);}
	.st23{fill:url(#SVGID_15_);}
	.st24{fill:url(#SVGID_16_);}
	.st25{fill:url(#SVGID_17_);}
	.st26{fill:url(#SVGID_18_);}
</style>
<g id="BACKGROUND">
</g>
<rect x="408" y="1576.8" class="st0" width="2044.2" height="265.4"/>
<g>
	<radialGradient id="SVGID_1_" cx="1448.3575" cy="724.5076" r="634.7302" gradientUnits="userSpaceOnUse">
		<stop  offset="0" style="stop-color:#FFFFFF"/>
		<stop  offset="1" style="stop-color:#969CAB"/>
	</radialGradient>
	<circle class="st1" cx="1448.4" cy="724.5" r="634.7"/>
	<g id="OBJECTS">
		<g>
			
				<linearGradient id="SVGID_2_" gradientUnits="userSpaceOnUse" x1="1450.4198" y1="2017.826" x2="1450.4198" y2="1759.2908" gradientTransform="matrix(1 0 0 -1 0 2797.8899)">
				<stop  offset="0" style="stop-color:#283453"/>
				<stop  offset="1" style="stop-color:#4C5774"/>
			</linearGradient>
			<polygon class="st2" points="1585.2,848.2 1450.4,848.2 1450.4,848.2 1315.6,848.2 1315.6,944.4 1450.4,1038.6 1450.4,1038.6 
				1450.4,1038.6 1450.4,1038.6 1450.4,1038.6 1585.2,944.4 			"/>
			<g>
				
					<linearGradient id="SVGID_3_" gradientUnits="userSpaceOnUse" x1="1450.4414" y1="1687.7751" x2="1450.4414" y2="2121.2358" gradientTransform="matrix(1 0 0 -1 0 2797.8899)">
					<stop  offset="0" style="stop-color:#FFDFB4"/>
					<stop  offset="1" style="stop-color:#F69275"/>
				</linearGradient>
				<rect x="1329" y="676.7" class="st3" width="243" height="433.5"/>
				<g>
					<path class="st4" d="M1571.9,916.5c-0.5-8.5-0.8-16.9-1-25.4c-0.1-4.2-0.1-8.5-0.2-12.7l-0.1-12.7c0-8.5,0.1-16.9,0.3-25.4
						c0.2-8.5,0.5-16.9,1-25.4c0.5,8.5,0.8,16.9,1,25.4s0.3,16.9,0.3,25.4l-0.1,12.7c-0.1,4.2-0.1,8.5-0.2,12.7
						C1572.7,899.6,1572.4,908,1571.9,916.5z"/>
					<path class="st4" d="M1329,815c0.5,8.5,0.8,16.9,1,25.4c0.1,4.2,0.1,8.5,0.2,12.7l0.1,12.7c0,8.5-0.1,16.9-0.3,25.4
						c-0.2,8.5-0.5,16.9-1,25.4c-0.5-8.5-0.8-16.9-1-25.4s-0.3-16.9-0.3-25.4l0.1-12.7c0.1-4.2,0.1-8.5,0.2-12.7
						C1328.1,831.9,1328.4,823.5,1329,815z"/>
				</g>
				<path class="st5" d="M1329,832.9l2,4.9c7.5,18.5,20.3,34.4,36.6,45.8l37.3,26.1c9.9,6.9,21.6,10.6,33.7,10.6h11.9h11.9
					c12.1,0,23.8-3.7,33.7-10.6l37.3-26.1c16.3-11.4,29.1-27.4,36.6-45.8l2-4.9V676.7h-243L1329,832.9L1329,832.9z"/>
				<g>
					
						<linearGradient id="SVGID_4_" gradientUnits="userSpaceOnUse" x1="1241.283" y1="2206.0256" x2="1334.1288" y2="2113.1799" gradientTransform="matrix(1 0 0 -1 0 2797.8899)">
						<stop  offset="0" style="stop-color:#F69275"/>
						<stop  offset="1" style="stop-color:#FFDFB4"/>
					</linearGradient>
					<path class="st6" d="M1252.4,584.9v50.6c0,5,1,9.9,3.1,14.5l12.1,27.1c3.7,8.4,10.6,15.1,19.1,18.6l25.8,10.6V600.5l-34-25.7
						c-2.3-1.7-5.2-2.4-8.1-1.8l-9.9,2C1255.8,576,1252.4,580.2,1252.4,584.9z"/>
					
						<linearGradient id="SVGID_5_" gradientUnits="userSpaceOnUse" x1="1581.8817" y1="2190.8181" x2="1644.4008" y2="2128.2991" gradientTransform="matrix(1 0 0 -1 0 2797.8899)">
						<stop  offset="0" style="stop-color:#F69275"/>
						<stop  offset="1" style="stop-color:#FFDFB4"/>
					</linearGradient>
					<path class="st7" d="M1622.4,574.9l-34,25.7v105.9l25.8-10.6c8.5-3.5,15.4-10.1,19.1-18.6l12.1-27.1c2-4.6,3.1-9.5,3.1-14.5
						V585c0-4.8-3.4-8.9-8.1-9.9l-9.9-2C1627.6,572.5,1624.7,573.1,1622.4,574.9z"/>
				</g>
				<g>
					<path class="st4" d="M1267.5,677.3c2.3,4,5.2,7.5,8.6,10.5c3.3,3,7.2,5.3,11.3,7c4.2,1.7,8.5,3.6,12.7,5.5
						c4.2,2,8.3,3.9,12.4,6.2c-4.5-1.3-8.8-2.7-13.2-4.3c-4.3-1.6-8.6-3.3-12.9-5c-4.4-1.8-8.5-4.5-11.8-7.9
						C1271.4,685.8,1268.9,681.7,1267.5,677.3z"/>
					<path class="st4" d="M1252.4,584.9c0.5,5.5,0.8,10.9,1,16.4c0.1,2.7,0.1,5.5,0.2,8.2c0,2.7,0,5.5,0.1,8.2
						c0,5.5-0.1,10.9-0.3,16.4c0,1.4-0.1,2.7-0.1,4c0,1.3,0.1,2.7,0.3,4c0.3,2.7,1,5.3,1.8,7.9c-1.4-2.4-2.4-5-3.1-7.7
						c-0.3-1.3-0.6-2.7-0.7-4.1c-0.2-1.4-0.2-2.8-0.3-4.2c-0.2-5.5-0.3-10.9-0.3-16.4c0-2.7,0-5.5,0.1-8.2c0.1-2.7,0.1-5.5,0.2-8.2
						C1251.6,595.9,1251.9,590.4,1252.4,584.9z"/>
					<path class="st4" d="M1645.4,650.1c0.8-2.6,1.5-5.2,1.8-7.9c0.2-1.3,0.3-2.7,0.3-4c0-1.3,0-2.6-0.1-4c-0.1-2.7-0.1-5.5-0.2-8.2
						c0-2.7,0-5.5-0.1-8.2c0-5.5,0.1-10.9,0.3-16.4c0.2-5.5,0.5-10.9,1-16.4c0.5,5.5,0.8,10.9,1,16.4c0.2,5.5,0.3,10.9,0.3,16.4
						c0,2.7,0,5.5-0.1,8.2c-0.1,2.7-0.1,5.5-0.2,8.2c0,1.3-0.1,2.8-0.3,4.2c-0.2,1.4-0.4,2.8-0.7,4.1
						C1647.8,645.1,1646.8,647.7,1645.4,650.1z"/>
					<path class="st4" d="M1588.4,706.4c4-2.3,8.2-4.2,12.4-6.2c4.2-1.9,8.4-3.8,12.7-5.5c4.1-1.7,7.9-4,11.3-7
						c3.4-2.9,6.2-6.5,8.6-10.5c-1.4,4.4-3.9,8.5-7.2,12c-3.3,3.4-7.3,6.2-11.8,7.9c-4.2,1.7-8.5,3.4-12.9,5
						C1597.2,703.7,1592.9,705.2,1588.4,706.4z"/>
				</g>
				
					<linearGradient id="SVGID_6_" gradientUnits="userSpaceOnUse" x1="1450.4198" y1="2272.4009" x2="1450.4198" y2="1921.5474" gradientTransform="matrix(1 0 0 -1 0 2797.8899)">
					<stop  offset="0" style="stop-color:#F69275"/>
					<stop  offset="1" style="stop-color:#FFDFB4"/>
				</linearGradient>
				<path class="st8" d="M1450.4,876.3h11.9c12.1,0,23.8-3.7,33.7-10.6l37.3-26.1c16.3-11.4,29.1-27.4,36.6-45.8l17.6-43.2
					c11.2-27.4,18.8-56.1,22.7-85.4l18.6-139.6h-178.5h-178.5l18.6,139.6c3.9,29.3,11.5,58,22.7,85.4l17.6,43.2
					c7.5,18.5,20.3,34.4,36.6,45.8l37.3,26.1c9.9,6.9,21.6,10.6,33.7,10.6H1450.4z"/>
				<g>
					<path class="st4" d="M1610.3,665.1c0.8-11.8,2-23.4,3.3-35.1c1.3-11.7,2.7-23.3,4.2-35c1.6-11.6,3.2-23.2,5-34.9
						s3.7-23.2,6-34.7c-0.8,11.8-2,23.4-3.3,35.1c-1.3,11.7-2.7,23.3-4.3,35c-1.6,11.6-3.3,23.2-5,34.9
						C1614.5,642,1612.6,653.5,1610.3,665.1z"/>
					<path class="st4" d="M1496,865.7c9.9-7.8,20.1-15.4,30.3-22.9l3.8-2.8c1.3-0.9,2.6-1.9,3.8-2.8c2.5-1.9,4.9-3.9,7.2-5.9
						l1.7-1.6l0.9-0.8l0.8-0.8l1.6-1.6l1.6-1.7c1.1-1.1,2.1-2.3,3.1-3.5c0.5-0.6,1-1.2,1.5-1.8c0.5-0.6,1-1.2,1.5-1.8
						c1-1.2,1.9-2.4,2.8-3.7c0.4-0.7,0.9-1.3,1.3-1.9l1.3-2c0.2-0.3,0.4-0.7,0.7-1l0.6-1l1.2-2l1.2-2c0.4-0.7,0.8-1.3,1.1-2l1.1-2.1
						c0.3-0.7,0.7-1.4,1-2.1c0.7-1.4,1.3-2.8,2-4.2l3.8-8.7c5-11.6,10.1-23.2,15.6-34.6c-4.1,12-8.5,23.8-13.1,35.6
						c-1.1,2.9-2.3,5.9-3.4,8.8c-0.6,1.5-1.2,3-1.9,4.4c-0.3,0.7-0.7,1.5-1,2.2l-1.1,2.2c-2.9,5.7-6.5,11.1-10.4,16.2
						c-4,5-8.5,9.7-13.3,13.9c-2.5,2.1-4.9,4.1-7.6,5.9c-1.3,1-2.6,1.8-3.9,2.7l-3.9,2.6C1517.4,852.1,1506.8,859,1496,865.7z"/>
					<path class="st4" d="M1331,793.7c4,7.8,8.6,15.2,14,22c5.4,6.8,11.4,12.9,18.2,18.3l2.5,2l2.6,1.9l5.3,3.8
						c3.6,2.6,7.1,5.2,10.6,7.8c7,5.2,14,10.6,20.7,16.2c-7.6-4.4-15-9.1-22.3-14c-3.6-2.4-7.3-4.9-10.9-7.3l-5.4-3.7l-2.7-2l-2.6-2
						c-6.9-5.6-13.1-12.1-18.2-19.4C1337.7,810,1333.6,802.1,1331,793.7z"/>
					<path class="st4" d="M1271.9,525.4c2.3,11.5,4.2,23.1,6,34.7c1.8,11.6,3.5,23.2,5,34.9c1.6,11.6,3,23.3,4.3,35
						c1.3,11.7,2.5,23.4,3.3,35.1c-2.3-11.5-4.2-23.1-6-34.7c-1.8-11.6-3.5-23.2-5-34.9c-1.6-11.6-3-23.3-4.2-35
						C1274,548.9,1272.8,537.2,1271.9,525.4z"/>
				</g>
			</g>
			<g>
				
					<linearGradient id="SVGID_7_" gradientUnits="userSpaceOnUse" x1="1450.4198" y1="2509.9023" x2="1450.4198" y2="2273.3982" gradientTransform="matrix(1 0 0 -1 0 2797.8899)">
					<stop  offset="0" style="stop-color:#4C5774"/>
					<stop  offset="1" style="stop-color:#283453"/>
				</linearGradient>
				<polygon class="st9" points="1655.3,343.7 1450.4,288 1245.6,343.7 1183.7,454.4 1249.7,524.5 1450.4,524.5 1651.1,524.5 
					1717.1,454.4 				"/>
				<polygon class="st10" points="1450.4,288 1245.6,343.7 1329,492.3 1450.4,492.3 1571.9,492.3 1655.3,343.7 				"/>
				<g>
					<path class="st11" d="M1193.7,436.4c-0.7,1.6-1.4,3.2-2.1,4.7c-0.7,1.6-1.4,3.1-2.2,4.6l-2.3,4.6l-2.3,4.6l-0.2-1.6
						c11.5,11.2,22.7,22.8,33.6,34.6c5.4,5.9,10.8,11.9,16.1,18c2.6,3,5.2,6.1,7.8,9.2c1.3,1.6,2.6,3.1,3.8,4.6
						c1.3,1.6,2.5,3.1,3.8,4.7c-1.5-1.3-3-2.7-4.5-4c-1.5-1.3-2.9-2.7-4.4-4.1c-2.9-2.7-5.8-5.6-8.7-8.4c-5.7-5.6-11.4-11.4-17-17.1
						c-11.1-11.6-22-23.4-32.4-35.6l-0.7-0.8l0.5-0.8l2.7-4.4l2.8-4.3c0.9-1.4,1.9-2.9,2.8-4.3
						C1191.8,439.3,1192.7,437.9,1193.7,436.4z"/>
					<path class="st11" d="M1424.4,295.1c-14.7,4.8-29.5,9.3-44.3,13.7L1369,312c-3.7,1.1-7.4,2.1-11.1,3.2l-11.1,3.2l-11.1,3.1
						c-14.9,4.1-29.8,8.2-44.8,12l-11.2,2.9l-11.2,2.8c-7.5,1.9-15,3.7-22.5,5.6l0.7-0.5l-3.4,5.7c-1.1,1.9-2.3,3.8-3.4,5.6
						l-3.5,5.6c-1.2,1.9-2.3,3.7-3.5,5.6c1-2,2-3.9,2.9-5.9l3-5.9c1-2,2-3.9,3-5.9l3-5.9l0.2-0.4l0.5-0.1c7.4-2.2,14.8-4.5,22.2-6.6
						l11.1-3.3l11.1-3.2c14.8-4.2,29.7-8.3,44.7-12.3l11.2-2.9l11.2-2.9c3.7-1,7.5-2,11.2-2.9l11.2-2.8
						C1394.3,302,1409.3,298.4,1424.4,295.1z"/>
					<path class="st11" d="M1707.1,436.4c1,1.4,2,2.8,2.9,4.2c1,1.4,1.9,2.9,2.8,4.3l2.8,4.3l2.7,4.4l0.5,0.8l-0.7,0.8
						c-10.5,12.2-21.3,24-32.4,35.6c-5.6,5.8-11.2,11.5-17,17.1c-2.9,2.8-5.8,5.6-8.7,8.4c-1.5,1.4-2.9,2.8-4.4,4.1
						c-1.5,1.3-3,2.7-4.5,4c1.2-1.6,2.5-3.2,3.8-4.7c1.3-1.6,2.6-3.1,3.8-4.6c2.6-3.1,5.2-6.2,7.8-9.2c5.2-6.1,10.6-12.1,16.1-18
						c10.9-11.8,22-23.4,33.6-34.6l-0.2,1.6l-2.3-4.6l-2.3-4.6c-0.7-1.6-1.5-3.1-2.2-4.6C1708.5,439.6,1707.8,438,1707.1,436.4z"/>
					<path class="st11" d="M1476.4,295.1c15.1,3.3,30.1,6.9,45.1,10.7l11.2,2.8c3.7,1,7.5,1.9,11.2,2.9l11.2,2.9l11.2,2.9
						c14.9,4,29.8,8.1,44.7,12.3l11.1,3.2l11.1,3.3c7.4,2.1,14.8,4.4,22.2,6.6l0.5,0.1l0.2,0.4l3,5.9c1,2,2,3.9,3,5.9l3,5.9
						c1,2,2,3.9,2.9,5.9c-1.2-1.9-2.3-3.7-3.5-5.6l-3.5-5.6c-1.2-1.9-2.3-3.8-3.4-5.6l-3.4-5.7l0.7,0.5c-7.5-1.8-15-3.6-22.5-5.6
						l-11.2-2.8l-11.2-2.9c-15-3.9-29.9-7.9-44.8-12l-11.1-3.1l-11.1-3.2c-3.7-1.1-7.4-2.1-11.1-3.2l-11.1-3.3
						C1505.9,304.3,1491.1,299.9,1476.4,295.1z"/>
				</g>
				
					<linearGradient id="SVGID_8_" gradientUnits="userSpaceOnUse" x1="1450.4198" y1="2191.051" x2="1450.4198" y2="2302.4949" gradientTransform="matrix(1 0 0 -1 0 2797.8899)">
					<stop  offset="0" style="stop-color:#2D404E"/>
					<stop  offset="1" style="stop-color:#100C1A"/>
				</linearGradient>
				<polygon class="st12" points="1450.4,495.4 1258,495.4 1258,560.4 1275.1,579.9 1331.5,600.4 1450.4,606.8 1569.3,600.4 
					1625.8,579.9 1642.8,560.4 1642.8,495.4 				"/>
				
					<linearGradient id="SVGID_9_" gradientUnits="userSpaceOnUse" x1="1450.3982" y1="2373.5134" x2="1450.3982" y2="2237.45" gradientTransform="matrix(1 0 0 -1 0 2797.8899)">
					<stop  offset="0" style="stop-color:#4C5774"/>
					<stop  offset="1" style="stop-color:#283453"/>
				</linearGradient>
				<path class="st13" d="M1578.3,443.2l-33.3-10.1c-10.6-3.3-21.6-5.2-32.6-5.7l-55.1-2.8c-4.6-0.2-9.2-0.2-13.9,0l-55.1,2.8
					c-11.1,0.6-22,2.5-32.6,5.7l-33.3,10.1c-15.1,4.6-29.4,11.8-42,21.4l-22.4,16.9v79l8.9-11.3c3.6-4.6,8.2-8.2,13.6-10.5
					l29.4-12.7c8-3.4,16.4-5.8,25-7.1l30.7-4.4c12.4-1.8,24.9-2.7,37.4-2.7h47.4h47.4c12.5,0,25,0.9,37.4,2.7l30.7,4.4
					c8.6,1.3,17,3.6,25,7.1l29.4,12.7c5.3,2.3,10,5.9,13.6,10.5l8.9,11.3v-79l-22.4-16.9C1607.7,455.1,1593.5,447.9,1578.3,443.2z"
					/>
				<g>
					<path class="st11" d="M1578.3,443.2c-10.5-2.7-20.9-5.6-31.4-8.5c-10.4-3-21-4.9-31.7-5.5l-32.5-1.3
						c-5.4-0.2-10.8-0.5-16.3-0.8l-8.1-0.4c-2.7-0.1-5.3-0.2-8-0.2c-2.7,0-5.3,0.1-8,0.2l-8.1,0.4l-16.3,0.8l-32.5,1.3
						c-5.3,0.3-10.7,1-16,1.9c-2.6,0.5-5.3,1-7.9,1.6s-5.2,1.3-7.8,2c-10.5,2.9-20.9,5.8-31.4,8.5c10.2-3.6,20.5-7.1,30.8-10.5
						c5.1-1.7,10.5-3.3,15.8-4.4c5.3-1.2,10.8-2,16.3-2.4c2.7-0.3,5.5-0.4,8.2-0.6l8.1-0.5l16.2-1l16.2-0.9l8.1-0.4
						c2.7-0.2,5.5-0.3,8.2-0.3c2.7,0,5.5,0.1,8.2,0.3l8.1,0.4c5.4,0.3,10.8,0.6,16.2,0.9l16.2,1l8.1,0.5c2.7,0.2,5.4,0.3,8.2,0.6
						c5.5,0.5,10.9,1.3,16.3,2.4c5.3,1.2,10.6,2.6,15.8,4.4C1557.8,436.2,1568.1,439.6,1578.3,443.2z"/>
					<path class="st11" d="M1642.8,560.4c-0.7-6.6-1.1-13.1-1.4-19.7c-0.3-6.6-0.5-13.1-0.7-19.7c-0.2-13.1-0.2-26.3,0.3-39.5
						l0.7,1.4c-1.8-1.5-3.6-2.9-5.5-4.4c-1.8-1.5-3.6-3-5.4-4.5c-1.8-1.5-3.6-3-5.3-4.6l-2.6-2.3c-0.9-0.8-1.7-1.6-2.6-2.4
						c1,0.6,2,1.2,3,1.8l3,1.9c2,1.3,3.9,2.6,5.9,3.9c2,1.3,3.9,2.6,5.8,3.9c1.9,1.3,3.9,2.6,5.8,4l0.7,0.5l0,0.9
						c0.4,13.1,0.5,26.3,0.3,39.5c-0.1,6.6-0.3,13.1-0.7,19.7C1643.9,547.3,1643.5,553.8,1642.8,560.4z"/>
					<path class="st11" d="M1497.8,511.8c10.5-0.9,21.2-0.7,31.8,0.2c2.6,0.2,5.3,0.5,7.9,0.9c2.6,0.3,5.2,0.7,7.8,1l7.8,1l7.8,1.1
						c2.6,0.4,5.2,0.7,7.9,1.2c2.6,0.5,5.3,1,7.9,1.8c5.2,1.4,10.3,3.3,15.1,5.6c9.5,4.5,19.1,9.1,28.4,14.1
						c-10.1-3.3-19.9-7.1-29.7-11c-4.8-1.9-9.8-3.5-14.8-4.7c-2.5-0.6-5-1.1-7.6-1.5c-2.5-0.4-5.2-0.7-7.8-1.1l-7.8-1.2l-7.8-1.2
						c-5.2-0.8-10.4-1.7-15.6-2.5C1518.8,513.8,1508.3,512.7,1497.8,511.8z"/>
					<path class="st11" d="M1280.5,538.7c9.3-5,18.9-9.6,28.4-14.1c4.9-2.3,9.9-4.2,15.1-5.6c2.6-0.7,5.2-1.3,7.9-1.8
						c2.7-0.5,5.2-0.8,7.9-1.2l7.8-1.1l7.8-1c2.6-0.3,5.2-0.7,7.8-1l3.9-0.5c1.3-0.1,2.6-0.3,3.9-0.4c10.6-1,21.2-1.1,31.8-0.2
						c-10.5,0.9-21,2-31.4,3.6c-5.2,0.8-10.4,1.7-15.6,2.5l-7.8,1.2l-7.8,1.2c-2.6,0.4-5.2,0.7-7.8,1.1c-2.6,0.4-5.1,0.9-7.6,1.5
						c-5,1.2-10,2.8-14.8,4.7C1300.4,531.6,1290.6,535.3,1280.5,538.7z"/>
					<path class="st11" d="M1280.5,464.6c-0.9,0.8-1.7,1.6-2.6,2.4l-2.6,2.3c-1.8,1.6-3.6,3.1-5.3,4.6c-1.8,1.5-3.6,3-5.4,4.5
						c-1.8,1.5-3.6,3-5.5,4.4l0.7-1.4c0.4,13.1,0.5,26.3,0.3,39.5c-0.1,6.6-0.3,13.1-0.7,19.7c-0.3,6.6-0.7,13.1-1.4,19.7
						c-0.7-6.6-1.1-13.1-1.4-19.7s-0.5-13.1-0.7-19.7c-0.2-13.1-0.1-26.3,0.3-39.5l0-0.9l0.7-0.5c1.9-1.3,3.9-2.7,5.8-4
						c2-1.3,3.9-2.6,5.8-3.9c2-1.3,3.9-2.6,5.9-3.9l3-1.9C1278.5,465.8,1279.5,465.2,1280.5,464.6z"/>
				</g>
				<g>
					<path class="st14" d="M1479.6,345.5c-3.1-17.3,6.5-26.3,6.5-26.3l-8-8.7c0,0-8.2,6.8-14.7,6.8s-13-6.8-13-6.8s-6.5,6.8-13,6.8
						s-14.7-6.8-14.7-6.8l-8,8.7c0,0,9.7,8.9,6.5,26.3c-2.5,14-11,21.4-5.3,37.1c3.3,9.3,16,16.3,24.4,18.1
						c7.2,1.6,10.1,5.5,10.1,5.5s2.8-4,10.1-5.5c8.5-1.8,21.1-8.8,24.4-18.1C1490.5,367,1482.1,359.5,1479.6,345.5z"/>
					<circle class="st15" cx="1450.4" cy="362.2" r="26"/>
				</g>
			</g>
			<g>
				
					<linearGradient id="SVGID_10_" gradientUnits="userSpaceOnUse" x1="1450.4198" y1="1896.1364" x2="1450.4198" y2="1438.6523" gradientTransform="matrix(1 0 0 -1 0 2797.8899)">
					<stop  offset="0" style="stop-color:#4C5774"/>
					<stop  offset="1" style="stop-color:#283453"/>
				</linearGradient>
				<path class="st16" d="M1947.8,1117.4l-34-78.8l-42.6-36.4l-278.5-100.4l-36.4,78.4l-105.9,71.5l-105.9-71.5l-36.4-78.4
					l-278.5,100.4l-42.6,36.4l-34,78.8c-14.6,33.8-24.6,69.3-29.9,105.7c15.4,25.4,30.7,50.9,46.1,76.3
					c160.4,19.9,320.8,39.9,481.2,59.8c156.5-22.1,313.1-44.1,469.6-66.2c19.2-23.3,38.5-46.6,57.7-69.9
					C1972.5,1186.7,1962.5,1151.2,1947.8,1117.4z"/>
				<g>
					<path class="st11" d="M1308.1,901.8c-22.8,9.6-45.7,18.6-68.8,27.5c-23,8.8-46.2,17.4-69.4,25.8c-23.2,8.4-46.5,16.5-69.9,24.5
						c-23.4,7.9-46.8,15.6-70.5,22.7c22.8-9.6,45.7-18.6,68.7-27.5c23-8.8,46.2-17.4,69.4-25.8c23.2-8.4,46.5-16.5,69.9-24.5
						C1261,916.6,1284.5,908.9,1308.1,901.8z"/>
					<path class="st11" d="M1871.2,1002.1c-23.7-7.1-47.1-14.8-70.5-22.7c-23.4-7.9-46.7-16.1-69.9-24.5
						c-23.2-8.4-46.4-17-69.4-25.8c-23-8.8-46-17.9-68.7-27.5c23.7,7.1,47.1,14.8,70.5,22.7c23.4,7.9,46.7,16.1,69.9,24.5
						c23.2,8.4,46.4,17,69.4,25.8C1825.5,983.5,1848.5,992.5,1871.2,1002.1z"/>
					<path class="st11" d="M953,1117.4c-6.9,19.5-13,39.2-17.8,59.1c-2.4,10-4.5,20-6.2,30.1l-0.7,3.8l-0.6,3.8
						c-0.2,1.2-0.4,2.5-0.6,3.8c-0.5,3.1-1.2,5.9-2,8.5c-0.7-1.5-1.5-2.6-2-3.4c-1-1.3-1.4-1.5-1.8-2.4c-0.5-1.2-0.5-2.3-0.5-3.7
						c0-0.9,0.2-2.3,0.6-3.8l0.7-3.9c0.2-1.3,0.5-2.6,0.7-3.8c2-10.2,4.5-20.3,7.4-30.3C936.1,1155.3,943.6,1135.9,953,1117.4z"/>
				</g>
				
					<linearGradient id="SVGID_11_" gradientUnits="userSpaceOnUse" x1="1450.4631" y1="1766.3064" x2="1450.4631" y2="1438.6523" gradientTransform="matrix(1 0 0 -1 0 2797.8899)">
					<stop  offset="0" style="stop-color:#2D404E"/>
					<stop  offset="1" style="stop-color:#100C1A"/>
				</linearGradient>
				<path class="st17" d="M1450.4,1359.2h57.7l-7.4-158.1c-0.6-12.5-2.3-24.9-5.2-37.1l-20.3-85c-1.5-6.4-4-12.6-7.4-18.3
					l-17.3-29.1l-17.3,29.1c-3.4,5.7-5.9,11.8-7.4,18.3l-20.3,85c-2.9,12.2-4.7,24.6-5.2,37.1l-7.4,158.1H1450.4z"/>
				<g class="st18">
					<path d="M1066.1,1311.5c4.8,0.6,9.5,1.2,14.3,1.8c-11.9-43.4-23.8-86.9-35.7-130.3C1051.8,1225.8,1058.9,1268.6,1066.1,1311.5z
						"/>
					<polygon points="1821.9,1304.5 1838.5,1304.5 1863.7,1167 					"/>
				</g>
				<path class="st19" d="M1463.8,1108.5c8,22.4,18.5,50.7,28.5,74.4c-4.9-20.1-41.8-172.3-41.8-172.3l-41.8,172.3l27.7-74.6
					C1441,1095.5,1459.2,1095.6,1463.8,1108.5z"/>
				
					<linearGradient id="SVGID_12_" gradientUnits="userSpaceOnUse" x1="1387.9331" y1="1766.2847" x2="1512.9932" y2="1766.2847" gradientTransform="matrix(1 0 0 -1 0 2797.8899)">
					<stop  offset="0" style="stop-color:#2D404E"/>
					<stop  offset="1" style="stop-color:#100C1A"/>
				</linearGradient>
				<path class="st20" d="M1450.4,993.9h-62.5v28.7l35.2,40.9c3.1,3.6,7.7,5.8,12.5,5.8h29.7c4.8,0,9.4-2.1,12.5-5.8l35.2-40.9
					v-28.7L1450.4,993.9L1450.4,993.9z"/>
				<g>
					
						<linearGradient id="SVGID_13_" gradientUnits="userSpaceOnUse" x1="1354.6083" y1="1949.7335" x2="1354.6083" y2="1694.6699" gradientTransform="matrix(1 0 0 -1 0 2797.8899)">
						<stop  offset="0" style="stop-color:#4C5774"/>
						<stop  offset="1" style="stop-color:#283453"/>
					</linearGradient>
					<polygon class="st21" points="1315.6,848.2 1276.7,904.5 1342.5,1103.2 1432.6,993.9 1359.3,934.8 					"/>
					
						<linearGradient id="SVGID_14_" gradientUnits="userSpaceOnUse" x1="1546.2312" y1="1949.7335" x2="1546.2312" y2="1694.6699" gradientTransform="matrix(1 0 0 -1 0 2797.8899)">
						<stop  offset="0" style="stop-color:#4C5774"/>
						<stop  offset="1" style="stop-color:#283453"/>
					</linearGradient>
					<polygon class="st22" points="1585.2,848.2 1541.5,934.8 1468.3,993.9 1558.3,1103.2 1624.2,904.5 					"/>
				</g>
				<g>
					<path class="st11" d="M1405.3,971.9c-2-1.4-4.1-2.8-6.1-4.2c-2-1.4-4-2.9-6-4.3c-4-2.9-7.9-5.9-11.9-8.8c-3.9-3-7.8-5.9-11.8-9
						l-5.8-4.6l-5.8-4.6l-0.3-0.3l-0.2-0.4c-3.2-6.1-6.2-12.3-9.3-18.4c-3-6.2-6.1-12.4-9-18.6s-5.9-12.4-8.7-18.7
						c-1.4-3.1-2.8-6.3-4.2-9.5c-1.3-3.2-2.7-6.3-4-9.5c1.8,2.9,3.5,5.9,5.2,8.9c1.7,3,3.4,6,5.1,9c3.3,6,6.6,12.1,9.9,18.1
						c3.3,6.1,6.4,12.2,9.5,18.3c3.1,6.1,6.2,12.3,9.3,18.4l-0.6-0.7l5.7,4.7l5.7,4.7c3.8,3.2,7.5,6.4,11.3,9.6
						c3.7,3.2,7.5,6.5,11.1,9.8c1.8,1.6,3.7,3.3,5.5,4.9C1401.7,968.5,1403.5,970.2,1405.3,971.9z"/>
					<path class="st11" d="M1363.2,1078.1c4.2-6.5,8.7-12.7,13.3-18.8c4.6-6.1,9.4-12.1,14.2-18c4.9-5.9,9.8-11.7,15-17.4
						c5.1-5.7,10.4-11.3,15.9-16.7c-4.2,6.5-8.7,12.7-13.3,18.8c-4.6,6.1-9.4,12.1-14.2,18s-9.8,11.7-15,17.4
						C1374,1067.2,1368.8,1072.8,1363.2,1078.1z"/>
					<path class="st11" d="M1294.3,879.1c-1.3,2.2-2.7,4.4-4.1,6.6l-4.1,6.5l-4.2,6.5c-1.4,2.2-2.8,4.3-4.2,6.5l0.2-1.1
						c4.8,13.2,9.5,26.5,14,39.9c4.6,13.3,9,26.7,13.4,40.1c2.2,6.7,4.3,13.4,6.5,20.1c2.2,6.7,4.2,13.4,6.3,20.2
						c4.1,13.5,8.2,27,11.8,40.6c-5.2-13.1-10-26.4-14.7-39.6c-2.3-6.6-4.7-13.3-7-19.9c-2.3-6.7-4.6-13.3-6.9-20
						c-4.5-13.4-8.9-26.7-13.2-40.2c-4.3-13.4-8.5-26.8-12.5-40.4l-0.2-0.6l0.3-0.5c1.5-2.1,3-4.2,4.6-6.2l4.6-6.2l4.6-6.2
						C1291.1,883.2,1292.7,881.1,1294.3,879.1z"/>
					<path class="st11" d="M1495.6,971.9c1.8-1.7,3.6-3.4,5.4-5c1.8-1.7,3.6-3.3,5.5-4.9c3.7-3.3,7.4-6.5,11.1-9.8
						c3.7-3.2,7.5-6.4,11.3-9.6l5.7-4.7l5.7-4.7l-0.6,0.7c3-6.2,6.2-12.3,9.3-18.4c3.1-6.1,6.3-12.2,9.5-18.3
						c3.3-6.1,6.5-12.1,9.9-18.1c1.6-3,3.4-6,5.1-9c1.7-3,3.5-5.9,5.2-8.9c-1.3,3.2-2.6,6.4-4,9.5c-1.4,3.2-2.8,6.3-4.2,9.5
						c-2.8,6.3-5.7,12.5-8.7,18.7c-2.9,6.2-6,12.4-9,18.6c-3.1,6.2-6.2,12.3-9.3,18.4l-0.2,0.4l-0.3,0.3l-5.8,4.6l-5.8,4.6
						c-3.9,3-7.8,6-11.8,9c-3.9,2.9-7.9,5.9-11.9,8.8c-2,1.4-4,2.9-6,4.3C1499.6,969.1,1497.6,970.5,1495.6,971.9z"/>
					<path class="st11" d="M1537.7,1078.1c-5.6-5.3-10.8-10.9-15.9-16.7c-5.1-5.7-10.1-11.5-15-17.4c-4.9-5.9-9.6-11.9-14.2-18
						c-4.6-6.1-9.1-12.3-13.3-18.8c5.6,5.3,10.8,10.9,15.9,16.7c5.1,5.7,10.1,11.5,15,17.4c4.9,5.9,9.6,11.9,14.2,18
						C1529,1065.5,1533.5,1071.7,1537.7,1078.1z"/>
					<path class="st11" d="M1606.6,879.1c1.6,2,3.2,4.1,4.7,6.1l4.6,6.2l4.6,6.2c1.6,2.1,3.1,4.2,4.6,6.2l0.3,0.5l-0.2,0.6
						c-4,13.5-8.2,26.9-12.5,40.4c-4.3,13.4-8.7,26.8-13.2,40.2c-2.3,6.7-4.6,13.3-6.9,20c-2.3,6.7-4.6,13.3-7,19.9
						c-4.8,13.3-9.6,26.5-14.7,39.6c3.7-13.6,7.7-27.1,11.8-40.6c2.1-6.7,4.1-13.5,6.3-20.2c2.1-6.7,4.2-13.4,6.5-20.1
						c4.4-13.4,8.8-26.8,13.4-40.1c4.6-13.3,9.2-26.6,14-39.9l0.2,1.1c-1.4-2.2-2.8-4.3-4.2-6.5l-4.2-6.5l-4.1-6.5
						C1609.3,883.5,1607.9,881.3,1606.6,879.1z"/>
				</g>
				<g>
					
						<linearGradient id="SVGID_15_" gradientUnits="userSpaceOnUse" x1="982.4417" y1="1813.8542" x2="1211.0104" y2="1813.8542" gradientTransform="matrix(1 0 0 -1 0 2797.8899)">
						<stop  offset="0" style="stop-color:#4C5774"/>
						<stop  offset="1" style="stop-color:#283453"/>
					</linearGradient>
					<polygon class="st23" points="982.4,1038.6 1191.4,979.5 1211,929.5 997.4,993.6 					"/>
					
						<linearGradient id="SVGID_16_" gradientUnits="userSpaceOnUse" x1="1689.8292" y1="1813.8542" x2="1918.3978" y2="1813.8542" gradientTransform="matrix(1 0 0 -1 0 2797.8899)">
						<stop  offset="0" style="stop-color:#4C5774"/>
						<stop  offset="1" style="stop-color:#283453"/>
					</linearGradient>
					<polygon class="st24" points="1903.5,993.6 1689.8,929.5 1709.4,979.5 1918.4,1038.6 					"/>
				</g>
				<g>
					<path class="st11" d="M1009.9,1030.8c14.9-5,29.9-9.8,44.9-14.4l11.3-3.4l11.3-3.3l11.3-3.3l11.3-3.3
						c15.1-4.3,30.2-8.6,45.4-12.6l11.4-3.1l11.4-3c3.8-1,7.6-2,11.4-2.9c3.8-1,7.6-2,11.4-2.9l-0.7,0.6c1.6-3.6,3.1-7.1,4.6-10.7
						l2.3-5.3l2.4-5.3l-1.9,5.5l-1.9,5.5c-1.3,3.7-2.6,7.3-3.9,11l-0.1,0.4l-0.5,0.2c-3.7,1.2-7.5,2.3-11.2,3.6
						c-3.8,1.2-7.5,2.3-11.3,3.5l-11.3,3.4l-11.3,3.3c-15,4.5-30.2,8.8-45.3,13l-11.4,3.1l-11.4,3.1l-11.4,3.1l-11.4,3
						C1040.5,1023.5,1025.3,1027.3,1009.9,1030.8z"/>
					<path class="st11" d="M1181,938.5c-15,5.4-30.2,10.4-45.4,15.4c-3.8,1.2-7.6,2.5-11.4,3.6l-11.4,3.6c-3.8,1.2-7.6,2.4-11.4,3.6
						c-3.8,1.2-7.6,2.3-11.4,3.5c-3.8,1.2-7.6,2.3-11.5,3.4c-3.8,1.1-7.7,2.3-11.5,3.4l-5.8,1.7l-5.8,1.6l-11.5,3.3
						c-15.4,4.3-30.8,8.6-46.3,12.5l0.4-0.3l-2.1,5.5l-2.1,5.5l1.6-5.6l1.6-5.6l0.1-0.3l0.3-0.1c15.1-5.2,30.3-10.1,45.5-15
						l11.4-3.6l5.7-1.8l5.7-1.8c3.8-1.2,7.6-2.3,11.4-3.5c3.8-1.2,7.6-2.3,11.5-3.4c3.8-1.1,7.7-2.3,11.5-3.4
						c3.8-1.1,7.7-2.3,11.5-3.3l11.5-3.3c3.9-1.1,7.7-2.2,11.5-3.2C1150,946.4,1165.5,942.3,1181,938.5z"/>
					<path class="st11" d="M1890.9,1030.8c-15.4-3.5-30.6-7.4-45.8-11.3l-11.4-3l-11.4-3.1l-11.4-3.1l-11.4-3.1
						c-15.1-4.2-30.3-8.5-45.3-13l-11.3-3.3l-11.3-3.4c-3.8-1.1-7.5-2.3-11.3-3.5c-3.7-1.2-7.5-2.3-11.2-3.6l-0.5-0.2l-0.1-0.4
						c-1.3-3.6-2.6-7.3-3.9-11l-1.9-5.5l-1.9-5.5l2.4,5.3l2.3,5.3c1.6,3.6,3.1,7.1,4.6,10.7l-0.7-0.6c3.8,0.9,7.6,1.9,11.4,2.9
						c3.8,1,7.6,2,11.4,2.9l11.4,3l11.4,3.1c15.2,4.1,30.3,8.3,45.4,12.6l11.3,3.3l11.3,3.3l11.3,3.3l11.3,3.4
						C1861,1021.1,1876,1025.8,1890.9,1030.8z"/>
					<path class="st11" d="M1719.8,938.5c15.6,3.8,31,7.9,46.4,12.2c3.9,1.1,7.7,2.1,11.5,3.2l11.5,3.3c3.9,1.1,7.7,2.2,11.5,3.3
						s7.7,2.3,11.5,3.4c3.8,1.1,7.7,2.3,11.5,3.4c3.8,1.2,7.6,2.3,11.4,3.5l5.7,1.8l5.7,1.8l11.4,3.6c15.2,4.9,30.4,9.8,45.5,15
						l0.3,0.1l0.1,0.3l1.6,5.6l1.6,5.6l-2.1-5.5l-2.1-5.5l0.4,0.3c-15.5-3.9-30.9-8.2-46.3-12.5l-11.5-3.3l-5.8-1.6l-5.8-1.7
						c-3.8-1.1-7.7-2.3-11.5-3.4c-3.8-1.1-7.7-2.3-11.5-3.4c-3.8-1.2-7.6-2.3-11.4-3.5c-3.8-1.2-7.6-2.3-11.4-3.6l-11.4-3.6
						c-3.8-1.2-7.6-2.4-11.4-3.6C1750.1,948.9,1734.9,943.9,1719.8,938.5z"/>
				</g>
				<g>
					<path class="st14" d="M1718.3,1136.9c-4.8-26.6,10.1-40.2,10.1-40.2l-12.3-13.3c0,0-12.5,10.3-22.5,10.3
						c-10,0-19.9-10.3-19.9-10.3s-10,10.3-19.9,10.3c-10,0-22.5-10.3-22.5-10.3l-12.3,13.3c0,0,14.8,13.7,10.1,40.2
						c-3.9,21.4-16.8,32.8-8.2,56.8c5.1,14.2,24.5,24.9,37.4,27.7c11.1,2.4,15.4,8.5,15.4,8.5s4.3-6.1,15.4-8.5
						c12.9-2.8,32.3-13.5,37.4-27.7C1735.1,1169.7,1722.1,1158.3,1718.3,1136.9z"/>
					<circle class="st15" cx="1673.7" cy="1162.5" r="39.9"/>
				</g>
				<rect x="1108.5" y="1249.7" class="st5" width="237.3" height="109.5"/>
				
					<linearGradient id="SVGID_17_" gradientUnits="userSpaceOnUse" x1="1227.1849" y1="1548.1884" x2="1227.1849" y2="1481.1484" gradientTransform="matrix(1 0 0 -1 0 2797.8899)">
					<stop  offset="0" style="stop-color:#4C5774"/>
					<stop  offset="1" style="stop-color:#283453"/>
				</linearGradient>
				<polygon class="st25" points="1345.8,1296.5 1227.2,1316.7 1108.5,1296.5 1108.5,1249.7 1345.8,1249.7 				"/>
				<rect x="1555" y="1249.7" class="st5" width="237.3" height="109.5"/>
				
					<linearGradient id="SVGID_18_" gradientUnits="userSpaceOnUse" x1="1673.6547" y1="1548.1884" x2="1673.6547" y2="1481.1484" gradientTransform="matrix(1 0 0 -1 0 2797.8899)">
					<stop  offset="0" style="stop-color:#4C5774"/>
					<stop  offset="1" style="stop-color:#283453"/>
				</linearGradient>
				<polygon class="st26" points="1792.3,1296.5 1673.7,1316.7 1555,1296.5 1555,1249.7 1792.3,1249.7 				"/>
			</g>
		</g>
	</g>
	<path class="st11" d="M1968.3,1175.2c2.9,10,5.3,20.1,7.4,30.3c0.2,1.3,0.5,2.6,0.7,3.8l0.7,3.9c0.5,1.6,0.6,2.9,0.6,3.8
		c0,1.4,0.1,2.5-0.5,3.7c-0.4,0.9-0.8,1.1-1.8,2.4c-0.6,0.8-1.3,1.9-2,3.4c-0.7-2.6-1.4-5.5-2-8.5c-0.2-1.3-0.4-2.6-0.6-3.8
		l-0.6-3.8l-0.7-3.8c-1.8-10.1-3.9-20.1-6.2-30.1c-4.8-19.9-10.8-39.6-17.8-59.1C1955,1135.9,1962.5,1155.3,1968.3,1175.2z"/>
</g>
</svg>
